<svg version="1.1" id="Layer_1" xmlns="http://www.w3.org/2000/svg" xmlns:xlink="http://www.w3.org/1999/xlink" x="0px" y="0px"
	 width="100%" viewBox="0 0 500 500" enable-background="new 0 0 500 500" xml:space="preserve">
<path fill="#404040" opacity="1.000000" stroke="none" 
	d="
M295.000000,501.000000 
	C196.666687,501.000000 98.833382,501.000000 1.000052,501.000000 
	C1.000035,334.333405 1.000035,167.666794 1.000018,1.000142 
	C167.666565,1.000095 334.333130,1.000095 500.999756,1.000047 
	C500.999847,167.666519 500.999847,334.333038 500.999939,500.999786 
	C432.500000,501.000000 364.000000,501.000000 295.000000,501.000000 
M409.385010,180.428360 
	C384.108185,180.428360 358.831360,180.428360 333.422882,180.428360 
	C333.422882,184.042969 333.422882,187.089798 333.422882,190.751480 
	C358.299408,190.751480 382.854736,190.751480 407.829651,190.751480 
	C407.829651,216.130783 407.829651,240.890015 407.829651,265.556854 
	C411.331055,265.556854 414.394562,265.556854 417.585632,265.556854 
	C417.585632,237.110794 417.585632,209.050415 417.585632,180.428421 
	C414.923309,180.428421 412.632996,180.428421 409.385010,180.428360 
M84.209259,305.497559 
	C84.209259,310.730988 84.209259,315.964386 84.209259,321.172791 
	C112.877045,321.172791 140.750763,321.172791 168.635254,321.172791 
	C168.635254,317.834534 168.635254,314.898193 168.635254,311.354492 
	C143.827530,311.354492 119.268265,311.354492 94.293533,311.354492 
	C94.293533,285.983063 94.293533,261.221069 94.293533,236.356506 
	C90.796806,236.356506 87.729599,236.356506 84.209259,236.356506 
	C84.209259,259.271545 84.209259,281.885010 84.209259,305.497559 
M263.670288,251.886673 
	C268.623474,258.979706 273.575745,266.073364 278.530151,273.165558 
	C283.154358,279.785156 284.806549,280.370239 292.830383,278.256134 
	C292.830383,259.986664 292.830383,241.725449 292.830383,223.263519 
	C289.365997,223.263519 286.146454,223.263519 282.245117,223.263519 
	C282.245117,235.015503 282.245117,246.510956 282.245117,258.006409 
	C274.464355,248.610214 267.241486,239.285843 261.153748,229.271454 
	C257.309479,222.947586 252.616180,222.022583 246.298859,223.433655 
	C246.298859,237.477478 246.298859,251.362366 246.298859,265.308594 
	C249.863464,265.308594 253.108032,265.308594 256.949005,265.308594 
	C256.949005,257.992584 256.949005,250.981369 256.949005,243.970139 
	C257.274323,243.884933 257.599640,243.799744 257.924988,243.714539 
	C259.691315,246.248718 261.457642,248.782898 263.670288,251.886673 
M152.351944,223.047607 
	C148.236008,223.047607 144.120056,223.047607 139.783005,223.047607 
	C139.783005,230.702972 139.783005,237.942108 139.783005,245.388916 
	C143.309601,245.388916 146.534195,245.388916 150.303040,245.388916 
	C150.303040,241.211212 150.303040,237.326248 150.303040,233.196991 
	C158.090637,233.255844 165.114731,234.155090 168.906967,241.256165 
	C172.569077,248.113586 172.721649,255.528870 168.211411,262.073639 
	C164.019821,268.156036 157.377838,268.914246 150.098907,268.574768 
	C150.098907,264.398590 150.098907,260.625916 150.098907,256.598877 
	C146.465775,256.598877 143.246445,256.598877 139.768951,256.598877 
	C139.768951,264.133087 139.768951,271.374725 139.768951,278.914429 
	C144.510452,278.914429 148.979736,279.043213 153.436829,278.865723 
	C156.079147,278.760498 158.745514,278.361053 161.326736,277.769501 
	C175.290588,274.569244 182.145782,265.622711 182.111191,250.822418 
	C182.076584,236.005127 175.401413,227.242203 161.689163,224.216248 
	C158.941162,223.609848 156.096619,223.440979 152.351944,223.047607 
M344.670044,223.918640 
	C337.254272,226.444809 333.189056,231.514297 332.870697,239.439804 
	C332.589966,246.429199 335.864014,251.296860 342.120178,253.974167 
	C344.812500,255.126343 348.136749,254.891968 350.714294,256.196014 
	C353.127441,257.416931 355.851562,259.473907 356.783203,261.820282 
	C358.065399,265.049713 355.488739,267.327087 352.373901,268.513519 
	C351.629761,268.796936 350.880829,269.067902 350.368134,269.257904 
	C350.368134,272.649200 350.368134,275.736938 350.368134,278.827667 
	C360.542633,278.354767 366.652893,272.866180 367.388519,263.811615 
	C368.114349,254.877380 362.645294,248.097412 353.195099,246.287521 
	C351.893860,246.038284 350.252655,246.470642 349.279968,245.821548 
	C347.103088,244.368881 343.978790,242.657303 343.621490,240.631226 
	C343.268066,238.627304 345.355835,234.887024 347.256470,234.131546 
	C349.486176,233.245255 354.438934,233.918549 355.129303,235.375519 
	C357.970032,241.370529 362.448303,239.395981 366.731903,239.223602 
	C368.562225,229.638504 356.938812,220.249481 344.670044,223.918640 
M234.085251,279.006348 
	C238.377533,278.273743 235.171967,275.744049 234.763336,274.662628 
	C228.661545,258.514191 222.344193,242.447128 216.051010,226.371323 
	C215.617493,225.263870 214.973175,224.238953 213.958206,222.263382 
	C206.451675,241.673935 199.338806,260.066559 192.012177,279.011963 
	C194.539963,279.011963 196.064316,278.793365 197.502548,279.052612 
	C201.971069,279.858032 204.012833,277.895538 205.138870,273.653076 
	C206.497650,268.533752 208.504730,263.583649 210.291870,258.581970 
	C211.475052,255.270569 212.764862,251.997299 214.340210,247.824051 
	C217.415512,256.417908 220.112198,263.913025 222.779404,271.418579 
	C225.476501,279.008240 225.463730,279.012787 234.085251,279.006348 
M318.080078,233.780670 
	C318.540863,231.973892 319.001648,230.167114 319.504730,228.194366 
	C316.712189,228.194366 314.612244,228.194366 312.401672,228.194366 
	C311.278442,233.809250 310.195251,239.223892 309.117157,244.613113 
	C312.316498,245.732910 314.115936,244.945328 315.038574,241.923096 
	C315.808167,239.402206 316.934875,236.990341 318.080078,233.780670 
z"/>
<path fill="#F3F3F3" opacity="1.000000" stroke="none" 
	d="
M409.863831,180.428391 
	C412.632996,180.428421 414.923309,180.428421 417.585632,180.428421 
	C417.585632,209.050415 417.585632,237.110794 417.585632,265.556854 
	C414.394562,265.556854 411.331055,265.556854 407.829651,265.556854 
	C407.829651,240.890015 407.829651,216.130783 407.829651,190.751480 
	C382.854736,190.751480 358.299408,190.751480 333.422882,190.751480 
	C333.422882,187.089798 333.422882,184.042969 333.422882,180.428360 
	C358.831360,180.428360 384.108185,180.428360 409.863831,180.428391 
z"/>
<path fill="#F3F3F3" opacity="1.000000" stroke="none" 
	d="
M84.209259,304.998016 
	C84.209259,281.885010 84.209259,259.271545 84.209259,236.356506 
	C87.729599,236.356506 90.796806,236.356506 94.293533,236.356506 
	C94.293533,261.221069 94.293533,285.983063 94.293533,311.354492 
	C119.268265,311.354492 143.827530,311.354492 168.635254,311.354492 
	C168.635254,314.898193 168.635254,317.834534 168.635254,321.172791 
	C140.750763,321.172791 112.877045,321.172791 84.209259,321.172791 
	C84.209259,315.964386 84.209259,310.730988 84.209259,304.998016 
z"/>
<path fill="#FAFAFA" opacity="1.000000" stroke="none" 
	d="
M263.447144,251.601868 
	C261.457642,248.782898 259.691315,246.248718 257.924988,243.714539 
	C257.599640,243.799744 257.274323,243.884933 256.949005,243.970139 
	C256.949005,250.981369 256.949005,257.992584 256.949005,265.308594 
	C253.108032,265.308594 249.863464,265.308594 246.298859,265.308594 
	C246.298859,251.362366 246.298859,237.477478 246.298859,223.433655 
	C252.616180,222.022583 257.309479,222.947586 261.153748,229.271454 
	C267.241486,239.285843 274.464355,248.610214 282.245117,258.006409 
	C282.245117,246.510956 282.245117,235.015503 282.245117,223.263519 
	C286.146454,223.263519 289.365997,223.263519 292.830383,223.263519 
	C292.830383,241.725449 292.830383,259.986664 292.830383,278.256134 
	C284.806549,280.370239 283.154358,279.785156 278.530151,273.165558 
	C273.575745,266.073364 268.623474,258.979706 263.447144,251.601868 
z"/>
<path fill="#FBFBFB" opacity="1.000000" stroke="none" 
	d="
M152.824265,223.058990 
	C156.096619,223.440979 158.941162,223.609848 161.689163,224.216248 
	C175.401413,227.242203 182.076584,236.005127 182.111191,250.822418 
	C182.145782,265.622711 175.290588,274.569244 161.326736,277.769501 
	C158.745514,278.361053 156.079147,278.760498 153.436829,278.865723 
	C148.979736,279.043213 144.510452,278.914429 139.768951,278.914429 
	C139.768951,271.374725 139.768951,264.133087 139.768951,256.598877 
	C143.246445,256.598877 146.465775,256.598877 150.098907,256.598877 
	C150.098907,260.625916 150.098907,264.398590 150.098907,268.574768 
	C157.377838,268.914246 164.019821,268.156036 168.211411,262.073639 
	C172.721649,255.528870 172.569077,248.113586 168.906967,241.256165 
	C165.114731,234.155090 158.090637,233.255844 150.303040,233.196991 
	C150.303040,237.326248 150.303040,241.211212 150.303040,245.388916 
	C146.534195,245.388916 143.309601,245.388916 139.783005,245.388916 
	C139.783005,237.942108 139.783005,230.702972 139.783005,223.047607 
	C144.120056,223.047607 148.236008,223.047607 152.824265,223.058990 
z"/>
<path fill="#FAFAFA" opacity="1.000000" stroke="none" 
	d="
M345.068024,223.821915 
	C356.938812,220.249481 368.562225,229.638504 366.731903,239.223602 
	C362.448303,239.395981 357.970032,241.370529 355.129303,235.375519 
	C354.438934,233.918549 349.486176,233.245255 347.256470,234.131546 
	C345.355835,234.887024 343.268066,238.627304 343.621490,240.631226 
	C343.978790,242.657303 347.103088,244.368881 349.279968,245.821548 
	C350.252655,246.470642 351.893860,246.038284 353.195099,246.287521 
	C362.645294,248.097412 368.114349,254.877380 367.388519,263.811615 
	C366.652893,272.866180 360.542633,278.354767 350.368134,278.827667 
	C350.368134,275.736938 350.368134,272.649200 350.368134,269.257904 
	C350.880829,269.067902 351.629761,268.796936 352.373901,268.513519 
	C355.488739,267.327087 358.065399,265.049713 356.783203,261.820282 
	C355.851562,259.473907 353.127441,257.416931 350.714294,256.196014 
	C348.136749,254.891968 344.812500,255.126343 342.120178,253.974167 
	C335.864014,251.296860 332.589966,246.429199 332.870697,239.439804 
	C333.189056,231.514297 337.254272,226.444809 345.068024,223.821915 
z"/>
<path fill="#FAFAFA" opacity="1.000000" stroke="none" 
	d="
M233.645248,279.008820 
	C225.463730,279.012787 225.476501,279.008240 222.779404,271.418579 
	C220.112198,263.913025 217.415512,256.417908 214.340210,247.824051 
	C212.764862,251.997299 211.475052,255.270569 210.291870,258.581970 
	C208.504730,263.583649 206.497650,268.533752 205.138870,273.653076 
	C204.012833,277.895538 201.971069,279.858032 197.502548,279.052612 
	C196.064316,278.793365 194.539963,279.011963 192.012177,279.011963 
	C199.338806,260.066559 206.451675,241.673935 213.958206,222.263382 
	C214.973175,224.238953 215.617493,225.263870 216.051010,226.371323 
	C222.344193,242.447128 228.661545,258.514191 234.763336,274.662628 
	C235.171967,275.744049 238.377533,278.273743 233.645248,279.008820 
z"/>
<path fill="#F7F7F7" opacity="1.000000" stroke="none" 
	d="
M317.991760,234.155426 
	C316.934875,236.990341 315.808167,239.402206 315.038574,241.923096 
	C314.115936,244.945328 312.316498,245.732910 309.117157,244.613113 
	C310.195251,239.223892 311.278442,233.809250 312.401672,228.194366 
	C314.612244,228.194366 316.712189,228.194366 319.504730,228.194366 
	C319.001648,230.167114 318.540863,231.973892 317.991760,234.155426 
z"/>
</svg>