<svg version="1.1" id="Layer_1" xmlns="http://www.w3.org/2000/svg" xmlns:xlink="http://www.w3.org/1999/xlink" x="0px" y="0px"
	 width="100%" viewBox="0 0 496 496" enable-background="new 0 0 496 496" xml:space="preserve">
<path fill="#000000" opacity="1.000000" stroke="none" 
	d="
M382.000000,179.766632 
	C392.494751,179.767090 402.492645,179.914505 412.482758,179.699509 
	C416.684357,179.609100 418.435730,180.814835 418.404541,185.326523 
	C418.229431,210.645370 418.210724,235.966476 418.367981,261.285370 
	C418.395996,265.798157 416.346924,266.408478 412.592804,266.423340 
	C408.760742,266.438477 406.789307,265.630096 406.825226,261.204926 
	C406.992859,240.550476 406.905060,219.893906 406.898407,199.238098 
	C406.895844,191.235413 406.883606,191.229706 399.120148,191.226257 
	C379.130646,191.217407 359.141083,191.226791 339.151611,191.200760 
	C333.228821,191.193039 330.686157,187.315338 332.897308,181.812027 
	C333.904327,179.305649 336.115509,179.815704 338.022827,179.809418 
	C352.515106,179.761642 367.007599,179.773758 382.000000,179.766632 
z"/>
<path fill="#000000" opacity="1.000000" stroke="none" 
	d="
M95.111290,301.917358 
	C95.109665,303.403656 95.197784,304.414215 95.083504,305.401367 
	C94.605034,309.534180 96.397308,310.878906 100.511726,310.848633 
	C121.506981,310.694061 142.504578,310.860687 163.499939,310.713898 
	C167.665695,310.684784 169.436127,311.741852 169.464218,316.301697 
	C169.492722,320.924530 167.971909,322.347656 163.424530,322.316254 
	C138.929871,322.147064 114.432762,322.136475 89.938240,322.312775 
	C85.235641,322.346619 83.528564,320.963623 83.569603,316.085266 
	C83.778397,291.257874 83.778351,266.427277 83.608971,241.599472 
	C83.578117,237.076416 84.904602,235.602768 89.529327,235.509644 
	C94.665756,235.406235 95.183250,237.882599 95.161392,241.941528 
	C95.054588,261.770844 95.109940,281.601044 95.111290,301.917358 
z"/>
<path fill="#000000" opacity="1.000000" stroke="none" 
	d="
M281.765442,247.885574 
	C281.770721,240.748077 281.960815,234.083862 281.720032,227.435257 
	C281.546204,222.634262 284.411072,222.633514 287.852020,222.607498 
	C291.251892,222.581802 293.486542,222.942184 293.423309,227.357117 
	C293.208832,242.333496 293.421082,257.315643 293.271851,272.293640 
	C293.248413,274.644714 294.917236,278.454651 291.197083,279.026031 
	C287.389313,279.610901 283.009460,280.874756 279.948608,276.279602 
	C273.585541,266.727051 266.902588,257.387512 260.338928,247.968857 
	C259.692047,247.040588 259.288635,245.869629 257.296173,245.199310 
	C257.296173,250.335449 257.093658,255.240845 257.356812,260.121124 
	C257.590057,264.446625 256.428009,266.474060 251.574051,266.387451 
	C247.068802,266.307068 245.435150,264.957855 245.565918,260.326996 
	C245.857040,250.016022 245.570312,239.689896 245.721176,229.372894 
	C245.753891,227.136200 244.332657,223.541000 247.664536,223.021729 
	C251.488373,222.425797 255.937546,221.060211 259.001099,225.549866 
	C264.909973,234.209427 270.999756,242.745575 277.021393,251.328110 
	C278.253296,253.083908 279.515198,254.818649 281.765747,256.481262 
	C281.765747,253.776031 281.765747,251.070786 281.765442,247.885574 
z"/>
<path fill="#000000" opacity="1.000000" stroke="none" 
	d="
M139.174835,244.536407 
	C138.938782,238.442886 138.864761,232.781418 138.815247,227.119720 
	C138.794876,224.791382 139.111221,222.714767 142.193115,222.701904 
	C150.006927,222.669296 157.825348,222.180786 165.456573,224.691086 
	C175.696533,228.059570 181.999557,236.183914 182.325470,247.002411 
	C182.450562,251.154144 182.807190,255.344391 181.803131,259.438782 
	C178.884750,271.339447 169.713806,278.312256 155.541458,279.255737 
	C151.393021,279.531891 147.210999,279.261871 143.047775,279.371582 
	C140.118286,279.448792 138.759476,278.230316 138.801575,275.248871 
	C138.874496,270.084167 138.880432,264.916626 138.794876,259.752228 
	C138.729904,255.829849 141.264206,255.549149 144.149414,255.737656 
	C146.915329,255.918365 150.580368,254.563904 150.814148,259.395660 
	C150.830246,259.728394 150.849564,260.061005 150.870331,260.393433 
	C151.354568,268.148926 153.799194,269.623291 161.185440,266.615082 
	C168.595505,263.597107 172.072906,256.386108 170.566910,247.160782 
	C169.388641,239.943054 163.592026,234.884506 156.100037,234.172409 
	C152.464859,233.826889 150.958511,234.997589 150.837006,238.763306 
	C150.580643,246.709869 147.010345,248.544235 139.174835,244.536407 
z"/>
<path fill="#000000" opacity="1.000000" stroke="none" 
	d="
M347.298645,234.489624 
	C344.126465,236.174652 343.582245,238.704880 344.410431,241.482010 
	C345.374695,244.715454 348.214050,245.311386 351.142273,245.656509 
	C361.201447,246.842148 366.474030,251.501938 367.961639,260.452484 
	C369.402985,269.124603 362.576263,278.201080 353.841522,279.161224 
	C352.197174,279.341980 350.068909,279.595306 349.938293,277.283539 
	C349.768921,274.285461 348.198547,270.637329 351.279266,268.472321 
	C353.914948,266.619995 357.348297,265.453644 356.302734,261.516724 
	C355.259613,257.588898 351.740814,256.733612 348.059357,256.253418 
	C339.768494,255.172012 333.766113,250.029480 332.704102,243.398743 
	C331.388184,235.182831 334.563965,228.222382 341.205383,224.766266 
	C348.280792,221.084290 357.763611,222.208679 363.055756,227.513596 
	C364.322235,228.783127 365.413055,230.359406 366.155212,231.990051 
	C367.301849,234.509537 368.779724,237.423050 366.187897,239.755692 
	C364.144928,241.594376 357.738586,239.909195 356.108368,237.385666 
	C354.023621,234.158417 351.351593,232.876755 347.298645,234.489624 
z"/>
<path fill="#000000" opacity="1.000000" stroke="none" 
	d="
M193.508469,273.628326 
	C200.164215,256.476410 206.670898,239.687607 213.177567,222.898804 
	C213.874268,222.893707 214.570953,222.888611 215.267639,222.883514 
	C222.414551,241.264511 229.561447,259.645508 236.728912,278.079407 
	C227.501678,281.101257 225.263748,280.040802 222.479462,272.177917 
	C219.931778,264.983185 217.341812,257.803406 214.304489,249.314758 
	C211.379517,257.433044 208.851242,264.346191 206.397766,271.285797 
	C203.214142,280.290619 202.292007,280.810150 192.646133,278.649841 
	C191.678558,276.927246 192.815674,275.501770 193.508469,273.628326 
z"/>
<path fill="#000000" opacity="1.000000" stroke="none" 
	d="
M309.814453,238.047806 
	C310.188721,236.166000 310.502380,234.704422 310.796326,233.238892 
	C311.990936,227.282791 313.076843,226.685074 319.677002,228.660385 
	C319.216827,234.008209 316.910736,238.800995 314.666199,243.575653 
	C313.561310,245.926025 311.459534,245.368454 309.568176,244.927567 
	C308.089447,242.564026 309.906555,240.553085 309.814453,238.047806 
z"/>
</svg>